{
    "asset" : {
        "copyright" : "Eric Julander",
        "generator" : "Khronos glTF Blender I/O v1.6.16",
        "version" : "2.0"
    },
    "extensionsUsed" : [
        "KHR_materials_transmission"
    ],
    "scene" : 0,
    "scenes" : [
        {
            "extras" : {
                "glTF2ExportSettings" : {
                    "export_animations" : 0,
                    "export_cameras" : 1,
                    "export_copyright" : "Eric Julander",
                    "export_current_frame" : 1,
                    "export_draco_mesh_compression_enable" : 0,
                    "export_extras" : 1,
                    "export_format" : "GLTF_SEPARATE",
                    "export_image_format" : "JPEG",
                    "export_lights" : 0,
                    "export_materials" : "EXPORT",
                    "export_morph" : 0,
                    "export_skins" : 0,
                    "export_texture_dir" : "textures",
                    "export_yup" : 1,
                    "use_renderable" : 0,
                    "use_visible" : 1
                }
            },
            "name" : "Scene",
            "nodes" : [
                1,
                2,
                3,
                4,
                5,
                6,
                7,
                8,
                9,
                10,
                11,
                12
            ]
        }
    ],
    "nodes" : [
        {
            "camera" : 0,
            "name" : "front_camera_Orientation",
            "rotation" : [
                -0.7071067690849304,
                0,
                0,
                0.7071067690849304
            ]
        },
        {
            "children" : [
                0
            ],
            "name" : "front_camera",
            "rotation" : [
                0.7071068286895752,
                0,
                0,
                0.7071068286895752
            ],
            "scale" : [
                0.4545691907405853,
                1.2767311334609985,
                0.6210321187973022
            ],
            "translation" : [
                0,
                1,
                3
            ]
        },
        {
            "name" : "main_light",
            "rotation" : [
                -0.633083701133728,
                -0.11872527003288269,
                -0.15920193493366241,
                -0.7481739521026611
            ],
            "scale" : [
                0.9995453953742981,
                0.8176026940345764,
                0.6713578701019287
            ],
            "translation" : [
                -0.01701497472822666,
                1.0879586935043335,
                -0.26697784662246704
            ]
        },
        {
            "mesh" : 0,
            "name" : "cieling_front",
            "translation" : [
                0,
                1.7934750318527222,
                0
            ]
        },
        {
            "mesh" : 1,
            "name" : "floor_front",
            "scale" : [
                0.8864009976387024,
                1,
                0.89262455701828
            ]
        },
        {
            "mesh" : 2,
            "name" : "center_pillar_left",
            "rotation" : [
                -0.7071068286895752,
                0,
                0,
                0.7071068286895752
            ],
            "scale" : [
                0.125,
                0.125,
                1
            ],
            "translation" : [
                -1,
                1,
                -1
            ]
        },
        {
            "mesh" : 3,
            "name" : "front_left_support_beam",
            "rotation" : [
                0,
                -1,
                0,
                1.910685676922942e-15
            ],
            "scale" : [
                0.125,
                0.125,
                1
            ],
            "translation" : [
                -1,
                1.6835078001022339,
                0
            ]
        },
        {
            "mesh" : 4,
            "name" : "center_pillar_left.001",
            "rotation" : [
                -0.7071068286895752,
                0,
                0,
                0.7071068286895752
            ],
            "scale" : [
                0.125,
                0.125,
                1
            ],
            "translation" : [
                1,
                1.000525712966919,
                -1
            ]
        },
        {
            "mesh" : 5,
            "name" : "front_left_support_beam.001",
            "rotation" : [
                0,
                -1,
                0,
                1.910685676922942e-15
            ],
            "scale" : [
                0.125,
                0.125,
                1
            ],
            "translation" : [
                1,
                1.6840335130691528,
                0.0005260109901428223
            ]
        },
        {
            "mesh" : 6,
            "name" : "front_left_support_beam.002",
            "rotation" : [
                0,
                -0.7071068286895752,
                0,
                0.7071068286895752
            ],
            "scale" : [
                0.125,
                0.125,
                1
            ],
            "translation" : [
                0.0010907500982284546,
                1.6835078001022339,
                -0.9999999403953552
            ]
        },
        {
            "mesh" : 7,
            "name" : "center_pillar_left.002",
            "rotation" : [
                -0.7071068286895752,
                0,
                0,
                0.7071068286895752
            ],
            "scale" : [
                0.125,
                0.125,
                1
            ],
            "translation" : [
                -1,
                1,
                1
            ]
        },
        {
            "mesh" : 8,
            "name" : "center_pillar_left.003",
            "rotation" : [
                -0.7071068286895752,
                0,
                0,
                0.7071068286895752
            ],
            "scale" : [
                0.125,
                0.125,
                1
            ],
            "translation" : [
                1,
                1.0005300045013428,
                1
            ]
        },
        {
            "mesh" : 9,
            "name" : "front_left_support_beam.003",
            "rotation" : [
                0,
                -0.7071068286895752,
                0,
                0.7071068286895752
            ],
            "scale" : [
                0.125,
                0.125,
                1
            ],
            "translation" : [
                0.10048757493495941,
                1.683222770690918,
                1
            ]
        }
    ],
    "cameras" : [
        {
            "name" : "Camera",
            "perspective" : {
                "aspectRatio" : 1.7777777777777777,
                "yfov" : 0.36779505484538033,
                "zfar" : 100,
                "znear" : 0.10000000149011612
            },
            "type" : "perspective"
        }
    ],
    "materials" : [
        {
            "doubleSided" : true,
            "extensions" : {
                "KHR_materials_transmission" : {
                    "transmissionFactor" : 0.10000000149011612
                }
            },
            "name" : "ciel",
            "pbrMetallicRoughness" : {
                "baseColorTexture" : {
                    "index" : 0
                },
                "metallicFactor" : 0,
                "roughnessFactor" : 0.5
            }
        },
        {
            "doubleSided" : true,
            "name" : "floor1",
            "pbrMetallicRoughness" : {
                "baseColorTexture" : {
                    "index" : 1
                },
                "metallicFactor" : 0,
                "roughnessFactor" : 0.5
            }
        },
        {
            "doubleSided" : true,
            "name" : "p2",
            "pbrMetallicRoughness" : {
                "baseColorTexture" : {
                    "index" : 2
                },
                "metallicFactor" : 0
            }
        }
    ],
    "meshes" : [
        {
            "name" : "Plane.065",
            "primitives" : [
                {
                    "attributes" : {
                        "POSITION" : 0,
                        "NORMAL" : 1,
                        "TEXCOORD_0" : 2
                    },
                    "indices" : 3,
                    "material" : 0
                }
            ]
        },
        {
            "name" : "Plane",
            "primitives" : [
                {
                    "attributes" : {
                        "POSITION" : 4,
                        "NORMAL" : 5,
                        "TEXCOORD_0" : 6
                    },
                    "indices" : 3,
                    "material" : 1
                }
            ]
        },
        {
            "name" : "Cube.001",
            "primitives" : [
                {
                    "attributes" : {
                        "POSITION" : 7,
                        "NORMAL" : 8,
                        "TEXCOORD_0" : 9
                    },
                    "indices" : 10,
                    "material" : 2
                }
            ]
        },
        {
            "name" : "Cube.018",
            "primitives" : [
                {
                    "attributes" : {
                        "POSITION" : 11,
                        "NORMAL" : 12,
                        "TEXCOORD_0" : 13
                    },
                    "indices" : 14,
                    "material" : 2
                }
            ]
        },
        {
            "name" : "Cube.022",
            "primitives" : [
                {
                    "attributes" : {
                        "POSITION" : 15,
                        "NORMAL" : 16,
                        "TEXCOORD_0" : 17
                    },
                    "indices" : 10,
                    "material" : 2
                }
            ]
        },
        {
            "name" : "Cube.023",
            "primitives" : [
                {
                    "attributes" : {
                        "POSITION" : 18,
                        "NORMAL" : 19,
                        "TEXCOORD_0" : 20
                    },
                    "indices" : 21,
                    "material" : 2
                }
            ]
        },
        {
            "name" : "Cube.024",
            "primitives" : [
                {
                    "attributes" : {
                        "POSITION" : 22,
                        "NORMAL" : 23,
                        "TEXCOORD_0" : 24
                    },
                    "indices" : 25,
                    "material" : 2
                }
            ]
        },
        {
            "name" : "Cube.025",
            "primitives" : [
                {
                    "attributes" : {
                        "POSITION" : 26,
                        "NORMAL" : 27,
                        "TEXCOORD_0" : 28
                    },
                    "indices" : 10,
                    "material" : 2
                }
            ]
        },
        {
            "name" : "Cube.026",
            "primitives" : [
                {
                    "attributes" : {
                        "POSITION" : 29,
                        "NORMAL" : 30,
                        "TEXCOORD_0" : 31
                    },
                    "indices" : 10,
                    "material" : 2
                }
            ]
        },
        {
            "name" : "Cube.027",
            "primitives" : [
                {
                    "attributes" : {
                        "POSITION" : 32,
                        "NORMAL" : 33,
                        "TEXCOORD_0" : 34
                    },
                    "indices" : 35,
                    "material" : 2
                }
            ]
        }
    ],
    "textures" : [
        {
            "sampler" : 0,
            "source" : 0
        },
        {
            "sampler" : 0,
            "source" : 1
        },
        {
            "sampler" : 0,
            "source" : 2
        }
    ],
    "images" : [
        {
            "mimeType" : "image/jpeg",
            "name" : "ciel_office",
            "uri" : "textures/ciel_office.jpg"
        },
        {
            "mimeType" : "image/jpeg",
            "name" : "carpet2",
            "uri" : "textures/carpet2.jpg"
        },
        {
            "mimeType" : "image/jpeg",
            "name" : "office wall",
            "uri" : "textures/office%20wall.jpg"
        }
    ],
    "accessors" : [
        {
            "bufferView" : 0,
            "componentType" : 5126,
            "count" : 4,
            "max" : [
                0.875,
                0,
                0.875000536441803
            ],
            "min" : [
                -0.875,
                0,
                -0.8749997615814209
            ],
            "type" : "VEC3"
        },
        {
            "bufferView" : 1,
            "componentType" : 5126,
            "count" : 4,
            "type" : "VEC3"
        },
        {
            "bufferView" : 2,
            "componentType" : 5126,
            "count" : 4,
            "type" : "VEC2"
        },
        {
            "bufferView" : 3,
            "componentType" : 5123,
            "count" : 6,
            "type" : "SCALAR"
        },
        {
            "bufferView" : 4,
            "componentType" : 5126,
            "count" : 4,
            "max" : [
                1.128157615661621,
                0.0005273818969726562,
                1.120291829109192
            ],
            "min" : [
                -1.128157615661621,
                0,
                -1.120291829109192
            ],
            "type" : "VEC3"
        },
        {
            "bufferView" : 5,
            "componentType" : 5126,
            "count" : 4,
            "type" : "VEC3"
        },
        {
            "bufferView" : 6,
            "componentType" : 5126,
            "count" : 4,
            "type" : "VEC2"
        },
        {
            "bufferView" : 7,
            "componentType" : 5126,
            "count" : 54,
            "max" : [
                1,
                1,
                1
            ],
            "min" : [
                -1,
                -1,
                -1
            ],
            "type" : "VEC3"
        },
        {
            "bufferView" : 8,
            "componentType" : 5126,
            "count" : 54,
            "type" : "VEC3"
        },
        {
            "bufferView" : 9,
            "componentType" : 5126,
            "count" : 54,
            "type" : "VEC2"
        },
        {
            "bufferView" : 10,
            "componentType" : 5123,
            "count" : 144,
            "type" : "SCALAR"
        },
        {
            "bufferView" : 11,
            "componentType" : 5126,
            "count" : 24,
            "max" : [
                1,
                1.0000001192092896,
                0.8750014305114746
            ],
            "min" : [
                -1,
                -1.0000001192092896,
                -0.8750014901161194
            ],
            "type" : "VEC3"
        },
        {
            "bufferView" : 12,
            "componentType" : 5126,
            "count" : 24,
            "type" : "VEC3"
        },
        {
            "bufferView" : 13,
            "componentType" : 5126,
            "count" : 24,
            "type" : "VEC2"
        },
        {
            "bufferView" : 14,
            "componentType" : 5123,
            "count" : 36,
            "type" : "SCALAR"
        },
        {
            "bufferView" : 15,
            "componentType" : 5126,
            "count" : 54,
            "max" : [
                1,
                1,
                1
            ],
            "min" : [
                -1,
                -1,
                -1
            ],
            "type" : "VEC3"
        },
        {
            "bufferView" : 16,
            "componentType" : 5126,
            "count" : 54,
            "type" : "VEC3"
        },
        {
            "bufferView" : 17,
            "componentType" : 5126,
            "count" : 54,
            "type" : "VEC2"
        },
        {
            "bufferView" : 18,
            "componentType" : 5126,
            "count" : 24,
            "max" : [
                1,
                1.0000001192092896,
                0.8755275011062622
            ],
            "min" : [
                -1,
                -1.0000001192092896,
                -0.8744754791259766
            ],
            "type" : "VEC3"
        },
        {
            "bufferView" : 19,
            "componentType" : 5126,
            "count" : 24,
            "type" : "VEC3"
        },
        {
            "bufferView" : 20,
            "componentType" : 5126,
            "count" : 24,
            "type" : "VEC2"
        },
        {
            "bufferView" : 21,
            "componentType" : 5123,
            "count" : 36,
            "type" : "SCALAR"
        },
        {
            "bufferView" : 22,
            "componentType" : 5126,
            "count" : 24,
            "max" : [
                1,
                1.0000001192092896,
                0.876092255115509
            ],
            "min" : [
                -1,
                -1.0000001192092896,
                -0.873910665512085
            ],
            "type" : "VEC3"
        },
        {
            "bufferView" : 23,
            "componentType" : 5126,
            "count" : 24,
            "type" : "VEC3"
        },
        {
            "bufferView" : 24,
            "componentType" : 5126,
            "count" : 24,
            "type" : "VEC2"
        },
        {
            "bufferView" : 25,
            "componentType" : 5123,
            "count" : 36,
            "type" : "SCALAR"
        },
        {
            "bufferView" : 26,
            "componentType" : 5126,
            "count" : 54,
            "max" : [
                1,
                1,
                1
            ],
            "min" : [
                -1,
                -1,
                -1
            ],
            "type" : "VEC3"
        },
        {
            "bufferView" : 27,
            "componentType" : 5126,
            "count" : 54,
            "type" : "VEC3"
        },
        {
            "bufferView" : 28,
            "componentType" : 5126,
            "count" : 54,
            "type" : "VEC2"
        },
        {
            "bufferView" : 29,
            "componentType" : 5126,
            "count" : 54,
            "max" : [
                1,
                1,
                1
            ],
            "min" : [
                -1,
                -1,
                -1
            ],
            "type" : "VEC3"
        },
        {
            "bufferView" : 30,
            "componentType" : 5126,
            "count" : 54,
            "type" : "VEC3"
        },
        {
            "bufferView" : 31,
            "componentType" : 5126,
            "count" : 54,
            "type" : "VEC2"
        },
        {
            "bufferView" : 32,
            "componentType" : 5126,
            "count" : 24,
            "max" : [
                1,
                1.0000001192092896,
                0.9754891991615295
            ],
            "min" : [
                -1.0000001192092896,
                -1,
                -0.7745137214660645
            ],
            "type" : "VEC3"
        },
        {
            "bufferView" : 33,
            "componentType" : 5126,
            "count" : 24,
            "type" : "VEC3"
        },
        {
            "bufferView" : 34,
            "componentType" : 5126,
            "count" : 24,
            "type" : "VEC2"
        },
        {
            "bufferView" : 35,
            "componentType" : 5123,
            "count" : 36,
            "type" : "SCALAR"
        }
    ],
    "bufferViews" : [
        {
            "buffer" : 0,
            "byteLength" : 48,
            "byteOffset" : 0
        },
        {
            "buffer" : 0,
            "byteLength" : 48,
            "byteOffset" : 48
        },
        {
            "buffer" : 0,
            "byteLength" : 32,
            "byteOffset" : 96
        },
        {
            "buffer" : 0,
            "byteLength" : 12,
            "byteOffset" : 128
        },
        {
            "buffer" : 0,
            "byteLength" : 48,
            "byteOffset" : 140
        },
        {
            "buffer" : 0,
            "byteLength" : 48,
            "byteOffset" : 188
        },
        {
            "buffer" : 0,
            "byteLength" : 32,
            "byteOffset" : 236
        },
        {
            "buffer" : 0,
            "byteLength" : 648,
            "byteOffset" : 268
        },
        {
            "buffer" : 0,
            "byteLength" : 648,
            "byteOffset" : 916
        },
        {
            "buffer" : 0,
            "byteLength" : 432,
            "byteOffset" : 1564
        },
        {
            "buffer" : 0,
            "byteLength" : 288,
            "byteOffset" : 1996
        },
        {
            "buffer" : 0,
            "byteLength" : 288,
            "byteOffset" : 2284
        },
        {
            "buffer" : 0,
            "byteLength" : 288,
            "byteOffset" : 2572
        },
        {
            "buffer" : 0,
            "byteLength" : 192,
            "byteOffset" : 2860
        },
        {
            "buffer" : 0,
            "byteLength" : 72,
            "byteOffset" : 3052
        },
        {
            "buffer" : 0,
            "byteLength" : 648,
            "byteOffset" : 3124
        },
        {
            "buffer" : 0,
            "byteLength" : 648,
            "byteOffset" : 3772
        },
        {
            "buffer" : 0,
            "byteLength" : 432,
            "byteOffset" : 4420
        },
        {
            "buffer" : 0,
            "byteLength" : 288,
            "byteOffset" : 4852
        },
        {
            "buffer" : 0,
            "byteLength" : 288,
            "byteOffset" : 5140
        },
        {
            "buffer" : 0,
            "byteLength" : 192,
            "byteOffset" : 5428
        },
        {
            "buffer" : 0,
            "byteLength" : 72,
            "byteOffset" : 5620
        },
        {
            "buffer" : 0,
            "byteLength" : 288,
            "byteOffset" : 5692
        },
        {
            "buffer" : 0,
            "byteLength" : 288,
            "byteOffset" : 5980
        },
        {
            "buffer" : 0,
            "byteLength" : 192,
            "byteOffset" : 6268
        },
        {
            "buffer" : 0,
            "byteLength" : 72,
            "byteOffset" : 6460
        },
        {
            "buffer" : 0,
            "byteLength" : 648,
            "byteOffset" : 6532
        },
        {
            "buffer" : 0,
            "byteLength" : 648,
            "byteOffset" : 7180
        },
        {
            "buffer" : 0,
            "byteLength" : 432,
            "byteOffset" : 7828
        },
        {
            "buffer" : 0,
            "byteLength" : 648,
            "byteOffset" : 8260
        },
        {
            "buffer" : 0,
            "byteLength" : 648,
            "byteOffset" : 8908
        },
        {
            "buffer" : 0,
            "byteLength" : 432,
            "byteOffset" : 9556
        },
        {
            "buffer" : 0,
            "byteLength" : 288,
            "byteOffset" : 9988
        },
        {
            "buffer" : 0,
            "byteLength" : 288,
            "byteOffset" : 10276
        },
        {
            "buffer" : 0,
            "byteLength" : 192,
            "byteOffset" : 10564
        },
        {
            "buffer" : 0,
            "byteLength" : 72,
            "byteOffset" : 10756
        }
    ],
    "samplers" : [
        {
            "magFilter" : 9729,
            "minFilter" : 9987
        }
    ],
    "buffers" : [
        {
            "byteLength" : 10828,
            "uri" : "base.bin"
        }
    ]
}
