{
    "asset" : {
        "copyright" : "Eric Julander",
        "generator" : "Khronos glTF Blender I/O v1.6.16",
        "version" : "2.0"
    },
    "extensionsUsed" : [
        "KHR_materials_transmission"
    ],
    "scene" : 0,
    "scenes" : [
        {
            "extras" : {
                "glTF2ExportSettings" : {
                    "export_animations" : 0,
                    "export_cameras" : 1,
                    "export_copyright" : "Eric Julander",
                    "export_current_frame" : 1,
                    "export_draco_mesh_compression_enable" : 0,
                    "export_extras" : 1,
                    "export_format" : "GLTF_SEPARATE",
                    "export_image_format" : "JPEG",
                    "export_lights" : 0,
                    "export_materials" : "EXPORT",
                    "export_morph" : 0,
                    "export_skins" : 0,
                    "export_texture_dir" : "textures",
                    "export_yup" : 1,
                    "use_renderable" : 0,
                    "use_visible" : 1
                }
            },
            "name" : "Scene",
            "nodes" : [
                1,
                2,
                3,
                4,
                5,
                6,
                7,
                8
            ]
        }
    ],
    "nodes" : [
        {
            "camera" : 0,
            "name" : "front_camera_Orientation",
            "rotation" : [
                -0.7071067690849304,
                0,
                0,
                0.7071067690849304
            ]
        },
        {
            "children" : [
                0
            ],
            "name" : "front_camera",
            "rotation" : [
                0.7071068286895752,
                0,
                0,
                0.7071068286895752
            ],
            "scale" : [
                0.4545691907405853,
                1.2767311334609985,
                0.6210321187973022
            ],
            "translation" : [
                0.11876653879880905,
                0.7397797107696533,
                2.1683735847473145
            ]
        },
        {
            "mesh" : 0,
            "name" : "cieling_front",
            "translation" : [
                0.16497041285037994,
                1.696429967880249,
                -1.4712311029434204
            ]
        },
        {
            "mesh" : 1,
            "name" : "floor_front",
            "translation" : [
                0,
                0,
                -1.4219797849655151
            ]
        },
        {
            "mesh" : 2,
            "name" : "center_pillar_left",
            "rotation" : [
                -0.7078564167022705,
                0.010189088992774487,
                0.010194534435868263,
                0.7062093019485474
            ],
            "scale" : [
                0.10985960066318512,
                0.13178957998752594,
                1
            ],
            "translation" : [
                -0.7140333652496338,
                1,
                -2.282492160797119
            ]
        },
        {
            "mesh" : 3,
            "name" : "center_pillar_right",
            "rotation" : [
                -0.49941733479499817,
                0.5005819201469421,
                -0.49941736459732056,
                -0.5005820393562317
            ],
            "scale" : [
                0.10985960066318512,
                0.13178957998752594,
                1
            ],
            "translation" : [
                0.8600628972053528,
                1,
                -2.309631824493408
            ]
        },
        {
            "mesh" : 4,
            "name" : "front_left_support_beam",
            "rotation" : [
                -0.7071068286895752,
                0.7071068286895752,
                0,
                -3.090862321641907e-08
            ],
            "scale" : [
                0.10985960066318512,
                0.13178957998752594,
                1
            ],
            "translation" : [
                -0.7291430830955505,
                1.6835078001022339,
                -1.4162758588790894
            ]
        },
        {
            "mesh" : 5,
            "name" : "front_left_support_beam.001",
            "rotation" : [
                -0.7071068286895752,
                0.7071068286895752,
                0,
                -3.090862321641907e-08
            ],
            "scale" : [
                0.10985960066318512,
                0.13178957998752594,
                1
            ],
            "translation" : [
                0.8521385192871094,
                1.6836872100830078,
                -1.4190970659255981
            ]
        },
        {
            "mesh" : 6,
            "name" : "front_left_support_beam.002",
            "rotation" : [
                -0.5,
                0.5,
                -0.4999999701976776,
                0.5
            ],
            "scale" : [
                0.10985960066318512,
                0.13178957998752594,
                1
            ],
            "translation" : [
                0.13160330057144165,
                1.6835078001022339,
                -2.294139862060547
            ]
        }
    ],
    "cameras" : [
        {
            "name" : "Camera",
            "perspective" : {
                "aspectRatio" : 1.7777777777777777,
                "yfov" : 0.36779505484538033,
                "zfar" : 100,
                "znear" : 0.10000000149011612
            },
            "type" : "perspective"
        }
    ],
    "materials" : [
        {
            "doubleSided" : true,
            "extensions" : {
                "KHR_materials_transmission" : {
                    "transmissionFactor" : 0.10000000149011612
                }
            },
            "name" : "ciel",
            "pbrMetallicRoughness" : {
                "baseColorTexture" : {
                    "index" : 0
                },
                "metallicFactor" : 0,
                "roughnessFactor" : 0.5
            }
        },
        {
            "doubleSided" : true,
            "name" : "floor1",
            "pbrMetallicRoughness" : {
                "baseColorTexture" : {
                    "index" : 1
                },
                "metallicFactor" : 0,
                "roughnessFactor" : 0.5
            }
        },
        {
            "doubleSided" : true,
            "name" : "p2",
            "pbrMetallicRoughness" : {
                "baseColorTexture" : {
                    "index" : 2
                },
                "metallicFactor" : 0
            }
        }
    ],
    "meshes" : [
        {
            "name" : "Plane.065",
            "primitives" : [
                {
                    "attributes" : {
                        "POSITION" : 0,
                        "NORMAL" : 1,
                        "TEXCOORD_0" : 2
                    },
                    "indices" : 3,
                    "material" : 0
                }
            ]
        },
        {
            "name" : "Plane",
            "primitives" : [
                {
                    "attributes" : {
                        "POSITION" : 4,
                        "NORMAL" : 5,
                        "TEXCOORD_0" : 6
                    },
                    "indices" : 3,
                    "material" : 1
                }
            ]
        },
        {
            "name" : "Cube.001",
            "primitives" : [
                {
                    "attributes" : {
                        "POSITION" : 7,
                        "NORMAL" : 8,
                        "TEXCOORD_0" : 9
                    },
                    "indices" : 10,
                    "material" : 2
                }
            ]
        },
        {
            "name" : "Cube.006",
            "primitives" : [
                {
                    "attributes" : {
                        "POSITION" : 11,
                        "NORMAL" : 12,
                        "TEXCOORD_0" : 13
                    },
                    "indices" : 10,
                    "material" : 2
                }
            ]
        },
        {
            "name" : "Cube.018",
            "primitives" : [
                {
                    "attributes" : {
                        "POSITION" : 14,
                        "NORMAL" : 15,
                        "TEXCOORD_0" : 16
                    },
                    "indices" : 10,
                    "material" : 2
                }
            ]
        },
        {
            "name" : "Cube.022",
            "primitives" : [
                {
                    "attributes" : {
                        "POSITION" : 17,
                        "NORMAL" : 18,
                        "TEXCOORD_0" : 19
                    },
                    "indices" : 10,
                    "material" : 2
                }
            ]
        },
        {
            "name" : "Cube.023",
            "primitives" : [
                {
                    "attributes" : {
                        "POSITION" : 20,
                        "NORMAL" : 21,
                        "TEXCOORD_0" : 22
                    },
                    "indices" : 10,
                    "material" : 2
                }
            ]
        }
    ],
    "textures" : [
        {
            "sampler" : 0,
            "source" : 0
        },
        {
            "sampler" : 0,
            "source" : 1
        },
        {
            "sampler" : 0,
            "source" : 2
        }
    ],
    "images" : [
        {
            "mimeType" : "image/jpeg",
            "name" : "ciel_office",
            "uri" : "textures/ciel_office.jpg"
        },
        {
            "mimeType" : "image/jpeg",
            "name" : "carpet2",
            "uri" : "textures/carpet2.jpg"
        },
        {
            "mimeType" : "image/jpeg",
            "name" : "office wall",
            "uri" : "textures/office%20wall.jpg"
        }
    ],
    "accessors" : [
        {
            "bufferView" : 0,
            "componentType" : 5126,
            "count" : 4,
            "max" : [
                1,
                0,
                1
            ],
            "min" : [
                -1,
                0,
                -1
            ],
            "type" : "VEC3"
        },
        {
            "bufferView" : 1,
            "componentType" : 5126,
            "count" : 4,
            "type" : "VEC3"
        },
        {
            "bufferView" : 2,
            "componentType" : 5126,
            "count" : 4,
            "type" : "VEC2"
        },
        {
            "bufferView" : 3,
            "componentType" : 5123,
            "count" : 6,
            "type" : "SCALAR"
        },
        {
            "bufferView" : 4,
            "componentType" : 5126,
            "count" : 4,
            "max" : [
                1,
                0,
                1
            ],
            "min" : [
                -1,
                0,
                -1
            ],
            "type" : "VEC3"
        },
        {
            "bufferView" : 5,
            "componentType" : 5126,
            "count" : 4,
            "type" : "VEC3"
        },
        {
            "bufferView" : 6,
            "componentType" : 5126,
            "count" : 4,
            "type" : "VEC2"
        },
        {
            "bufferView" : 7,
            "componentType" : 5126,
            "count" : 24,
            "max" : [
                1,
                1,
                1
            ],
            "min" : [
                -1,
                -1,
                -1
            ],
            "type" : "VEC3"
        },
        {
            "bufferView" : 8,
            "componentType" : 5126,
            "count" : 24,
            "type" : "VEC3"
        },
        {
            "bufferView" : 9,
            "componentType" : 5126,
            "count" : 24,
            "type" : "VEC2"
        },
        {
            "bufferView" : 10,
            "componentType" : 5123,
            "count" : 36,
            "type" : "SCALAR"
        },
        {
            "bufferView" : 11,
            "componentType" : 5126,
            "count" : 24,
            "max" : [
                1,
                1,
                1
            ],
            "min" : [
                -1,
                -1,
                -1
            ],
            "type" : "VEC3"
        },
        {
            "bufferView" : 12,
            "componentType" : 5126,
            "count" : 24,
            "type" : "VEC3"
        },
        {
            "bufferView" : 13,
            "componentType" : 5126,
            "count" : 24,
            "type" : "VEC2"
        },
        {
            "bufferView" : 14,
            "componentType" : 5126,
            "count" : 24,
            "max" : [
                1,
                1,
                1
            ],
            "min" : [
                -1,
                -1,
                -1
            ],
            "type" : "VEC3"
        },
        {
            "bufferView" : 15,
            "componentType" : 5126,
            "count" : 24,
            "type" : "VEC3"
        },
        {
            "bufferView" : 16,
            "componentType" : 5126,
            "count" : 24,
            "type" : "VEC2"
        },
        {
            "bufferView" : 17,
            "componentType" : 5126,
            "count" : 24,
            "max" : [
                1,
                1,
                1
            ],
            "min" : [
                -1,
                -1,
                -1
            ],
            "type" : "VEC3"
        },
        {
            "bufferView" : 18,
            "componentType" : 5126,
            "count" : 24,
            "type" : "VEC3"
        },
        {
            "bufferView" : 19,
            "componentType" : 5126,
            "count" : 24,
            "type" : "VEC2"
        },
        {
            "bufferView" : 20,
            "componentType" : 5126,
            "count" : 24,
            "max" : [
                1,
                1,
                1
            ],
            "min" : [
                -1,
                -1,
                -1
            ],
            "type" : "VEC3"
        },
        {
            "bufferView" : 21,
            "componentType" : 5126,
            "count" : 24,
            "type" : "VEC3"
        },
        {
            "bufferView" : 22,
            "componentType" : 5126,
            "count" : 24,
            "type" : "VEC2"
        }
    ],
    "bufferViews" : [
        {
            "buffer" : 0,
            "byteLength" : 48,
            "byteOffset" : 0
        },
        {
            "buffer" : 0,
            "byteLength" : 48,
            "byteOffset" : 48
        },
        {
            "buffer" : 0,
            "byteLength" : 32,
            "byteOffset" : 96
        },
        {
            "buffer" : 0,
            "byteLength" : 12,
            "byteOffset" : 128
        },
        {
            "buffer" : 0,
            "byteLength" : 48,
            "byteOffset" : 140
        },
        {
            "buffer" : 0,
            "byteLength" : 48,
            "byteOffset" : 188
        },
        {
            "buffer" : 0,
            "byteLength" : 32,
            "byteOffset" : 236
        },
        {
            "buffer" : 0,
            "byteLength" : 288,
            "byteOffset" : 268
        },
        {
            "buffer" : 0,
            "byteLength" : 288,
            "byteOffset" : 556
        },
        {
            "buffer" : 0,
            "byteLength" : 192,
            "byteOffset" : 844
        },
        {
            "buffer" : 0,
            "byteLength" : 72,
            "byteOffset" : 1036
        },
        {
            "buffer" : 0,
            "byteLength" : 288,
            "byteOffset" : 1108
        },
        {
            "buffer" : 0,
            "byteLength" : 288,
            "byteOffset" : 1396
        },
        {
            "buffer" : 0,
            "byteLength" : 192,
            "byteOffset" : 1684
        },
        {
            "buffer" : 0,
            "byteLength" : 288,
            "byteOffset" : 1876
        },
        {
            "buffer" : 0,
            "byteLength" : 288,
            "byteOffset" : 2164
        },
        {
            "buffer" : 0,
            "byteLength" : 192,
            "byteOffset" : 2452
        },
        {
            "buffer" : 0,
            "byteLength" : 288,
            "byteOffset" : 2644
        },
        {
            "buffer" : 0,
            "byteLength" : 288,
            "byteOffset" : 2932
        },
        {
            "buffer" : 0,
            "byteLength" : 192,
            "byteOffset" : 3220
        },
        {
            "buffer" : 0,
            "byteLength" : 288,
            "byteOffset" : 3412
        },
        {
            "buffer" : 0,
            "byteLength" : 288,
            "byteOffset" : 3700
        },
        {
            "buffer" : 0,
            "byteLength" : 192,
            "byteOffset" : 3988
        }
    ],
    "samplers" : [
        {
            "magFilter" : 9729,
            "minFilter" : 9987
        }
    ],
    "buffers" : [
        {
            "byteLength" : 4180,
            "uri" : "level_3_base.bin"
        }
    ]
}
