{
    "asset" : {
        "copyright" : "Eric Julander",
        "generator" : "Khronos glTF Blender I/O v1.6.16",
        "version" : "2.0"
    },
    "scene" : 0,
    "scenes" : [
        {
            "extras" : {
                "glTF2ExportSettings" : {
                    "export_animations" : 0,
                    "export_cameras" : 1,
                    "export_copyright" : "Eric Julander",
                    "export_current_frame" : 1,
                    "export_draco_mesh_compression_enable" : 0,
                    "export_extras" : 1,
                    "export_format" : "GLTF_SEPARATE",
                    "export_image_format" : "JPEG",
                    "export_lights" : 0,
                    "export_materials" : "EXPORT",
                    "export_morph" : 0,
                    "export_skins" : 0,
                    "export_texture_dir" : "textures",
                    "export_yup" : 1,
                    "use_renderable" : 0,
                    "use_visible" : 1
                }
            },
            "name" : "Scene",
            "nodes" : [
                0,
                1,
                3
            ]
        }
    ],
    "nodes" : [
        {
            "mesh" : 0,
            "name" : "power_box",
            "scale" : [
                0.7622236013412476,
                0.7762699723243713,
                1
            ],
            "translation" : [
                0.04918861389160156,
                0.24638718366622925,
                -0.4760231077671051
            ]
        },
        {
            "name" : "Lamp",
            "rotation" : [
                0.3549038767814636,
                -0.10172227025032043,
                -0.02273731864988804,
                0.9290742874145508
            ],
            "translation" : [
                1.3191933631896973,
                3.122722625732422,
                1.2432730197906494
            ]
        },
        {
            "camera" : 0,
            "name" : "Camera_Orientation",
            "rotation" : [
                -0.7071067690849304,
                0,
                0,
                0.7071067690849304
            ]
        },
        {
            "children" : [
                2
            ],
            "name" : "Camera",
            "rotation" : [
                0.5555938482284546,
                0.11847743391990662,
                -0.08036337047815323,
                0.8190361857414246
            ],
            "translation" : [
                0.798263669013977,
                1.6028106212615967,
                2.132762908935547
            ]
        }
    ],
    "cameras" : [
        {
            "name" : "Camera.001",
            "perspective" : {
                "aspectRatio" : 1.7777777777777777,
                "yfov" : 0.3720778490574519,
                "zfar" : 100,
                "znear" : 0.10000000149011612
            },
            "type" : "perspective"
        }
    ],
    "materials" : [
        {
            "doubleSided" : true,
            "name" : "Material",
            "pbrMetallicRoughness" : {
                "baseColorTexture" : {
                    "index" : 0
                },
                "metallicFactor" : 0.5461847186088562,
                "roughnessFactor" : 0.5
            }
        }
    ],
    "meshes" : [
        {
            "name" : "Cube",
            "primitives" : [
                {
                    "attributes" : {
                        "POSITION" : 0,
                        "NORMAL" : 1,
                        "TEXCOORD_0" : 2
                    },
                    "indices" : 3,
                    "material" : 0
                }
            ]
        }
    ],
    "textures" : [
        {
            "sampler" : 0,
            "source" : 0
        }
    ],
    "images" : [
        {
            "mimeType" : "image/jpeg",
            "name" : "puzzel_end",
            "uri" : "textures/puzzel_end.jpg"
        }
    ],
    "accessors" : [
        {
            "bufferView" : 0,
            "componentType" : 5126,
            "count" : 59,
            "max" : [
                0.41015076637268066,
                1.366940975189209,
                0.13460731506347656
            ],
            "min" : [
                -0.41015076637268066,
                0.07830709218978882,
                -0.13460731506347656
            ],
            "type" : "VEC3"
        },
        {
            "bufferView" : 1,
            "componentType" : 5126,
            "count" : 59,
            "type" : "VEC3"
        },
        {
            "bufferView" : 2,
            "componentType" : 5126,
            "count" : 59,
            "type" : "VEC2"
        },
        {
            "bufferView" : 3,
            "componentType" : 5123,
            "count" : 144,
            "type" : "SCALAR"
        }
    ],
    "bufferViews" : [
        {
            "buffer" : 0,
            "byteLength" : 708,
            "byteOffset" : 0
        },
        {
            "buffer" : 0,
            "byteLength" : 708,
            "byteOffset" : 708
        },
        {
            "buffer" : 0,
            "byteLength" : 472,
            "byteOffset" : 1416
        },
        {
            "buffer" : 0,
            "byteLength" : 288,
            "byteOffset" : 1888
        }
    ],
    "samplers" : [
        {
            "magFilter" : 9729,
            "minFilter" : 9987
        }
    ],
    "buffers" : [
        {
            "byteLength" : 2176,
            "uri" : "puzzel.bin"
        }
    ]
}
